<svg version="1.0" xmlns="http://www.w3.org/2000/svg"
 width="940.000000pt" height="980.000000pt" viewBox="0 0 940.000000 980.000000"
 preserveAspectRatio="xMidYMid meet">
<metadata>
Created by potrace 1.15, written by Peter Selinger 2001-2017
</metadata>
<g transform="translate(0.000000,980.000000) scale(0.100000,-0.100000)"
fill="#000000" stroke="none">
<path d="M980 8345 l0 -25 3720 0 3720 0 0 25 0 25 -3720 0 -3720 0 0 -25z"/>
<path d="M1436 8051 c-11 -12 -15 -27 -11 -39 3 -11 1 -23 -4 -27 -6 -3 -8 0
-5 8 11 29 -14 26 -26 -3 -10 -24 -10 -36 0 -61 10 -23 10 -33 1 -42 -9 -9
-11 -9 -7 3 3 8 1 22 -4 30 -9 13 -11 13 -20 0 -16 -25 -11 -80 10 -107 11
-14 17 -30 13 -36 -4 -6 -10 -2 -14 10 -4 12 -13 24 -20 29 -23 14 -2 -96 23
-123 19 -20 20 -23 4 -17 -16 6 -17 4 -11 -17 10 -33 45 -69 67 -69 20 0 25
-16 6 -23 -21 -7 53 -46 109 -57 28 -6 71 -10 95 -8 l42 3 -59 31 c-33 17 -72
34 -87 37 -14 4 -41 19 -59 34 -111 94 -58 289 84 309 26 4 47 9 47 13 0 15
-32 51 -46 51 -16 0 -19 -26 -4 -33 6 -3 5 -4 -2 -3 -7 1 -15 15 -18 31 -3 16
-11 30 -19 33 -10 3 -12 0 -8 -12 4 -10 3 -15 -3 -11 -6 3 -10 14 -10 24 0 10
-7 24 -15 31 -8 7 -12 16 -9 21 10 17 -23 9 -40 -10z"/>
<path d="M2660 7715 c0 -96 3 -115 15 -115 8 0 15 5 15 12 0 9 3 9 12 0 7 -7
26 -12 43 -12 44 0 70 31 70 85 0 54 -26 85 -70 85 -17 0 -36 -5 -43 -12 -9
-9 -12 -3 -12 30 0 31 -4 42 -15 42 -12 0 -15 -19 -15 -115z"/>
<path d="M4390 7714 c0 -88 3 -115 13 -112 7 3 13 26 15 56 l3 52 60 0 59 0 0
-55 c0 -42 3 -55 15 -55 12 0 15 19 15 115 0 96 -3 115 -15 115 -11 0 -15 -12
-15 -50 l0 -50 -60 0 -60 0 0 50 c0 38 -4 50 -15 50 -12 0 -15 -20 -15 -116z"/>
<path d="M2880 7750 c-19 -19 -22 -29 -22 -65 0 -36 3 -46 22 -65 26 -26 81
-26 105 0 23 25 12 39 -13 17 -24 -22 -55 -21 -75 1 -31 34 -21 42 49 42 63 0
65 1 59 23 -4 12 -13 32 -21 45 -19 29 -76 30 -104 2z"/>
<path d="M3367 7758 c-27 -22 -39 -66 -26 -105 12 -38 34 -53 78 -53 46 0 71
31 71 85 0 32 -6 51 -20 65 -23 23 -77 27 -103 8z"/>
<path d="M3837 7758 c-42 -33 -41 -125 3 -148 32 -17 78 -12 100 12 27 30 28
100 0 128 -23 23 -77 27 -103 8z"/>
<path d="M4647 7758 c-27 -22 -39 -66 -26 -105 12 -38 34 -53 78 -53 46 0 71
31 71 85 0 32 -6 51 -20 65 -23 23 -77 27 -103 8z"/>
<path d="M4810 7685 c0 -68 3 -85 15 -85 11 0 15 16 17 66 2 51 7 70 21 78 34
21 52 -4 55 -78 4 -82 22 -88 22 -7 0 41 5 65 16 75 38 39 64 10 64 -71 0 -46
4 -63 13 -63 17 0 23 104 8 143 -9 22 -17 27 -44 27 -18 0 -38 -5 -45 -12 -9
-9 -15 -9 -24 0 -7 7 -24 12 -38 12 -14 0 -31 -5 -38 -12 -9 -9 -12 -9 -12 0
0 7 -7 12 -15 12 -12 0 -15 -16 -15 -85z"/>
<path d="M5117 7758 c-42 -33 -41 -125 3 -148 31 -16 76 -12 95 10 23 25 12
39 -13 17 -24 -22 -55 -21 -75 1 -31 34 -21 42 49 42 63 0 65 1 59 23 -15 47
-34 67 -68 67 -18 0 -41 -6 -50 -12z"/>
<path d="M980 550 l0 -550 3720 0 3720 0 0 550 0 550 -3720 0 -3720 0 0 -550z
m480 309 c0 -13 7 -19 23 -19 34 0 47 -19 47 -67 0 -36 -3 -43 -20 -43 -17 0
-20 7 -20 40 0 29 -4 40 -15 40 -11 0 -15 -11 -15 -40 0 -33 -3 -40 -20 -40
-18 0 -20 7 -20 59 0 57 -1 58 -25 53 -23 -4 -25 -9 -25 -58 0 -47 -2 -54 -20
-54 -18 0 -20 7 -20 54 0 45 -3 54 -20 59 -11 3 -20 12 -20 21 0 14 13 16 85
15 76 -1 85 -3 85 -20z m694 -41 l16 -22 0 22 c0 15 6 22 19 22 16 0 20 -8 23
-42 4 -59 28 -63 28 -4 0 39 3 46 20 46 18 0 20 -7 20 -54 l0 -53 -36 -6 c-44
-7 -61 -1 -67 24 -5 19 -7 19 -31 -6 -29 -29 -43 -31 -74 -9 -25 17 -31 71
-10 92 21 21 75 15 92 -10z m851 -568 c5 -8 11 -7 20 0 20 17 58 2 51 -18 -3
-10 1 -7 10 6 20 26 39 28 53 5 8 -15 10 -15 11 -3 0 10 11 17 29 18 22 2 30
-3 35 -20 l7 -23 11 25 c6 16 12 20 15 12 4 -10 8 -10 19 -1 7 6 21 9 29 5 18
-7 20 -62 3 -69 -19 -7 -48 12 -49 31 0 13 -3 11 -9 -5 -12 -30 -28 -29 -36 2
-8 33 -34 33 -34 -1 0 -16 -5 -24 -12 -21 -7 2 -21 0 -30 -4 -11 -6 -22 -4
-32 7 -9 8 -16 11 -16 6 0 -16 -31 -23 -46 -11 -11 9 -18 8 -29 -1 -20 -17
-45 3 -45 35 0 29 32 46 45 25z"/>
</g>
</svg>
