<svg version="1.0" xmlns="http://www.w3.org/2000/svg"
 width="1920.000000pt" height="1150.000000pt" viewBox="0 0 1920.000000 1150.000000"
 preserveAspectRatio="xMidYMid meet">
<metadata>
Created by potrace 1.15, written by Peter Selinger 2001-2017
</metadata>
<g transform="translate(0.000000,1150.000000) scale(0.100000,-0.100000)"
fill="#000000" stroke="none">
<path d="M0 5750 l0 -5750 9600 0 9600 0 0 5750 0 5750 -9600 0 -9600 0 0
-5750z m14004 2884 c15 -14 16 -312 16 -3134 0 -2822 -1 -3120 -16 -3134 -14
-15 -428 -16 -4404 -16 -3976 0 -4390 1 -4404 16 -15 14 -16 312 -16 3134 0
2822 1 3120 16 3134 14 15 428 16 4404 16 3976 0 4390 -1 4404 -16z"/>
<path d="M8855 8123 c-57 -15 -93 -87 -76 -151 14 -51 40 -73 95 -79 55 -7 89
12 104 56 10 29 9 31 -14 31 -14 0 -24 -6 -24 -14 0 -17 -37 -46 -58 -46 -25
0 -62 48 -62 80 0 33 15 70 34 82 21 14 56 8 73 -12 20 -23 53 -27 53 -7 0 37
-76 73 -125 60z"/>
<path d="M9115 8123 c-32 -8 -72 -52 -79 -85 -9 -44 10 -104 41 -127 61 -49
165 -11 179 66 9 46 -11 109 -39 128 -27 17 -73 26 -102 18z m65 -43 c51 -27
44 -128 -11 -151 -26 -10 -34 -9 -57 8 -21 16 -28 30 -30 66 -5 70 42 107 98
77z"/>
<path d="M9330 8005 c0 -108 1 -115 20 -115 18 0 20 7 20 82 l0 83 51 -83 c41
-66 55 -82 75 -82 24 0 24 0 24 115 0 108 -1 115 -20 115 -18 0 -20 -7 -20
-75 0 -41 -3 -75 -8 -75 -4 0 -27 34 -52 75 -34 57 -50 75 -67 75 -23 0 -23
-2 -23 -115z"/>
<path d="M9600 8005 c0 -108 1 -115 20 -115 17 0 20 7 20 50 l0 50 50 0 c43 0
50 3 50 20 0 17 -7 20 -50 20 -49 0 -50 1 -50 30 0 30 1 30 55 30 42 0 55 3
55 15 0 12 -15 15 -75 15 l-75 0 0 -115z"/>
<path d="M9940 8005 c0 -108 1 -115 20 -115 17 0 20 7 20 50 l0 50 34 0 c40 0
51 -12 60 -62 6 -31 11 -38 30 -38 23 0 23 0 10 57 -8 37 -10 62 -3 74 15 28
11 57 -11 79 -16 16 -33 20 -90 20 l-70 0 0 -115z"/>
<path d="M10190 8006 c0 -109 1 -116 20 -116 18 0 20 7 21 83 l0 82 31 -83
c22 -58 35 -82 46 -80 8 2 26 35 41 75 14 39 29 75 34 79 4 4 7 -29 7 -74 0
-75 2 -82 20 -82 19 0 20 7 20 115 l0 115 -34 0 c-34 0 -35 -2 -56 -67 -12
-38 -24 -75 -27 -83 -3 -8 -17 20 -32 65 -26 76 -29 80 -59 83 l-32 3 0 -115z"/>
<path d="M10309 7745 c-53 -29 -62 -114 -17 -162 30 -32 90 -32 123 2 37 37
35 106 -4 146 -32 32 -62 36 -102 14z m86 -30 c50 -49 22 -135 -43 -135 -54 0
-85 65 -58 118 25 49 64 55 101 17z"/>
<path d="M8230 7655 l0 -95 55 0 c42 0 60 5 75 20 24 24 25 38 5 67 -10 14
-12 24 -5 28 14 9 13 48 -2 63 -7 7 -38 12 -70 12 l-58 0 0 -95z"/>
<path d="M8620 7655 c0 -57 4 -95 10 -95 6 0 10 18 10 40 l0 40 45 0 c47 0 48
-1 59 -52 4 -16 11 -28 16 -28 14 0 12 41 -4 71 -12 24 -12 29 2 43 12 12 14
22 6 43 -9 26 -13 28 -77 31 l-67 3 0 -96z"/>
<path d="M9300 7655 c0 -57 4 -95 10 -95 6 0 10 18 10 39 0 37 2 39 35 43 46
5 61 -5 69 -47 4 -19 11 -35 16 -35 15 0 12 54 -4 76 -13 17 -12 21 2 37 12
13 13 24 6 45 -9 25 -14 27 -77 30 l-67 3 0 -96z"/>
<path d="M10500 7655 c0 -57 4 -95 10 -95 6 0 10 18 10 39 0 37 2 39 35 43 46
5 61 -5 69 -47 4 -19 11 -35 16 -35 14 0 12 41 -4 71 -12 24 -12 29 2 43 12
12 14 22 6 43 -9 26 -13 28 -77 31 l-67 3 0 -96z"/>
<path d="M10710 7654 l0 -96 55 4 c63 5 90 25 99 72 8 40 -10 93 -34 106 -10
6 -41 10 -69 10 l-51 0 0 -96z m111 66 c14 -8 19 -21 19 -53 0 -58 -17 -79
-66 -81 l-39 -1 -3 73 -3 72 36 0 c20 0 45 -5 56 -10z"/>
<path d="M11100 7655 c0 -57 4 -95 10 -95 6 0 10 18 10 40 l0 40 45 0 c47 0
48 -1 59 -52 4 -16 11 -28 16 -28 14 0 12 41 -4 71 -12 24 -12 29 2 43 12 12
14 22 6 43 -9 26 -13 28 -77 31 l-67 3 0 -96z"/>
<path d="M7224 4270 c29 -149 63 -183 85 -85 7 30 17 53 22 50 5 -4 9 -12 9
-18 0 -7 5 -29 11 -50 17 -62 39 -45 65 51 21 77 21 82 5 82 -13 0 -21 -14
-31 -57 l-13 -58 -17 55 c-21 71 -45 78 -60 18 -19 -74 -22 -75 -37 -15 -10
38 -20 57 -30 57 -12 0 -14 -7 -9 -30z"/>
<path d="M8160 4277 c0 -20 -4 -23 -28 -19 -38 5 -62 -20 -62 -63 0 -47 21
-64 78 -63 l48 0 2 84 c2 78 1 84 -18 84 -14 0 -20 -7 -20 -23z"/>
<path d="M11710 4277 c0 -20 -4 -23 -28 -19 -38 5 -62 -20 -62 -63 0 -47 21
-64 80 -63 l50 0 -2 84 c-1 74 -3 84 -20 84 -12 0 -18 -7 -18 -23z"/>
<path d="M8915 4238 c-11 -43 -2 -103 16 -106 11 -2 16 4 16 20 1 70 3 78 22
78 17 0 20 -8 23 -47 2 -37 7 -49 21 -51 15 -3 18 2 17 30 -3 59 -1 68 19 68
17 0 20 -8 23 -47 2 -36 7 -49 21 -51 14 -3 17 4 17 35 0 76 -25 108 -67 84
-11 -6 -24 -6 -37 1 -12 7 -26 7 -41 0 -16 -7 -26 -7 -33 0 -8 8 -13 4 -17
-14z"/>
<path d="M10526 4252 c-2 -4 -5 -33 -5 -65 0 -50 3 -57 20 -57 16 0 19 7 19
50 0 43 3 50 20 50 20 0 24 -13 20 -72 -1 -22 3 -28 19 -28 18 0 21 6 21 50 0
43 3 50 20 50 17 0 20 -7 20 -50 0 -43 3 -50 20 -50 16 0 20 7 20 38 0 75 -26
107 -67 83 -11 -6 -24 -6 -37 1 -13 7 -26 7 -42 -1 -15 -6 -24 -7 -24 -1 0 12
-17 13 -24 2z"/>
<path d="M7270 3977 c0 -20 -4 -23 -28 -19 -38 5 -62 -20 -62 -63 0 -48 22
-66 78 -63 l47 3 3 83 c3 77 2 82 -17 82 -15 0 -21 -6 -21 -23z"/>
<path d="M10470 3977 c0 -20 -4 -23 -28 -19 -38 5 -62 -20 -62 -63 0 -47 21
-64 79 -63 l49 0 0 84 c0 75 -2 84 -19 84 -13 0 -19 -7 -19 -23z"/>
<path d="M12160 3977 c0 -20 -4 -23 -28 -19 -38 5 -62 -20 -62 -63 0 -47 21
-64 80 -63 l50 0 -1 84 c-1 75 -3 84 -20 84 -13 0 -19 -7 -19 -23z"/>
<path d="M11634 3872 c1 -70 4 -87 16 -87 9 0 16 11 18 26 3 22 7 25 34 21 52
-8 78 55 43 105 -12 17 -25 22 -64 21 l-49 0 2 -86z"/>
<path d="M11785 3946 c-2 -6 -3 -45 -2 -86 2 -59 5 -75 17 -75 9 0 16 11 18
26 3 22 7 25 34 21 52 -8 78 55 43 105 -12 18 -25 22 -61 21 -25 0 -47 -6 -49
-12z"/>
<path d="M9945 3201 c-116 -29 -189 -122 -189 -241 0 -99 47 -174 139 -224 40
-21 43 -21 755 -21 712 0 715 0 755 21 92 50 139 125 139 224 0 99 -47 174
-139 224 -40 21 -45 21 -735 23 -382 1 -708 -2 -725 -6z m345 -181 c21 -21 19
-40 -5 -40 -7 0 -15 7 -19 15 -9 23 -45 18 -57 -9 -8 -17 -8 -29 0 -45 13 -24
49 -28 57 -6 4 8 15 15 25 15 12 0 19 7 19 19 0 10 9 30 21 45 42 54 133 22
133 -47 0 -40 -17 -65 -53 -78 -32 -13 -78 6 -87 33 -6 20 -7 19 -28 -7 -46
-57 -130 -24 -130 51 0 65 79 99 124 54z m254 -22 l26 -43 0 43 c0 35 3 42 20
42 18 0 20 -7 20 -75 0 -67 -2 -75 -19 -75 -12 0 -29 15 -43 38 l-23 37 -3
-37 c-3 -30 -7 -38 -23 -38 -17 0 -19 7 -19 75 0 68 2 75 19 75 13 0 29 -16
45 -42z m386 27 c7 -8 10 -27 7 -41 -2 -14 -1 -41 3 -60 7 -32 6 -35 -13 -32
-14 2 -23 11 -25 26 -5 32 -42 30 -42 -3 0 -18 -5 -25 -20 -25 -18 0 -20 7
-20 75 l0 75 49 0 c31 0 53 -5 61 -15z m91 -25 c7 -22 15 -40 19 -40 4 0 12
18 19 40 10 33 16 40 36 40 24 0 25 -2 25 -75 0 -68 -2 -75 -20 -75 -16 0 -20
7 -21 33 l-1 32 -10 -32 c-7 -20 -18 -33 -28 -33 -10 0 -21 13 -28 33 l-10 32
-1 -32 c-1 -26 -5 -33 -21 -33 -18 0 -20 7 -20 75 0 73 1 75 25 75 20 0 26 -7
36 -40z"/>
</g>
</svg>
